<svg width="48" height="48" viewBox="0 0 48 48" fill="none" xmlns="http://www.w3.org/2000/svg">
<path fill-rule="evenodd" clip-rule="evenodd" d="M24 48C37.2548 48 48 37.2548 48 24C48 10.7452 37.2548 0 24 0C10.7452 0 0 10.7452 0 24C0 37.2548 10.7452 48 24 48ZM30.784 16.1636C31.443 16.4366 32.0417 16.8368 32.546 17.3413C33.0505 17.8456 33.4507 18.4443 33.7237 19.1033C33.9968 19.7623 34.1373 20.4686 34.1373 21.1819C34.1373 21.8952 33.9968 22.6015 33.7237 23.2605C33.4507 23.9194 33.0505 24.5181 32.546 25.0224L31.4995 26.0689L23.8184 33.75L16.1373 26.0689L15.0908 25.0224C14.0722 24.0038 13.5 22.6223 13.5 21.1819C13.5 19.7414 14.0722 18.3599 15.0908 17.3413C16.1094 16.3228 17.4909 15.7505 18.9313 15.7505C20.3718 15.7505 21.7533 16.3228 22.7719 17.3413L23.8184 18.3879L24.8649 17.3413C25.3692 16.8368 25.9679 16.4366 26.6269 16.1636C27.2858 15.8905 27.9922 15.75 28.7055 15.75C29.4188 15.75 30.1251 15.8905 30.784 16.1636Z" fill="white"/>
</svg>
