<svg width="138" height="80" viewBox="0 0 138 80" fill="none" xmlns="http://www.w3.org/2000/svg">
<path d="M28.0486 31.4102H24.9639V60.206H28.0486V31.4102ZM23.0565 31.4102H19.9683V60.206H23.0565V31.4102ZM23.0565 31.4102H19.9683V60.206H23.0565V31.4102ZM18.0609 31.4102H14.9762V60.206H18.0609V31.4102ZM28.0486 0.655762H14.9762V29.452H28.0486V0.655762ZM13.0688 0.655762H0V60.206H13.0688V0.655762ZM129.676 72.9307L125.686 66.7868H128.975L131.529 70.8593L134.067 66.7868H137.044L133.079 72.714L137.47 79.3876H134.16L131.297 74.8346L128.362 79.3876H125.407L129.676 72.9307ZM122.333 73.1717V73.0031C122.333 70.4008 121.066 68.8104 118.951 68.8104C116.84 68.8104 115.548 70.3766 115.548 72.9792V73.1717C115.548 75.7497 116.793 77.3638 118.951 77.3638C121.066 77.3638 122.333 75.7497 122.333 73.1717ZM112.638 73.2199V73.0273C112.638 69.1238 115.337 66.5212 118.951 66.5212C122.544 66.5212 125.242 69.0996 125.242 72.955V73.1479C125.242 77.0746 122.544 79.6292 118.929 79.6292C115.315 79.6292 112.638 77.0507 112.638 73.2199ZM107.962 73.1717V72.9792C107.962 70.1837 106.555 68.8104 104.698 68.8104C102.729 68.8104 101.319 70.1837 101.319 72.9792V73.1717C101.319 75.9907 102.658 77.3161 104.722 77.3161C106.812 77.3161 107.962 75.8703 107.962 73.1717ZM101.412 77.3638V79.3876H98.5746V60.9563H101.412V68.8104C102.096 67.6061 103.621 66.5212 105.428 66.5212C108.502 66.5212 110.871 68.8586 110.871 72.9307V73.1236C110.871 77.1715 108.595 79.6292 105.428 79.6292C103.478 79.6292 102.071 78.6407 101.412 77.3638ZM92.9423 74.9786V73.7253H91.4854C89.3277 73.7253 87.9431 74.232 87.9431 75.7736C87.9431 76.8346 88.5046 77.533 89.9146 77.533C91.65 77.533 92.9423 76.5929 92.9423 74.9786ZM85.1262 75.8941C85.1262 72.955 87.8962 71.8946 91.4177 71.8946H92.9423V71.2443C92.9423 69.5573 92.3769 68.7145 90.7123 68.7145C89.2346 68.7145 88.5046 69.4368 88.3654 70.69H85.62C85.8531 67.7501 88.1323 66.5212 90.8769 66.5212C93.6223 66.5212 95.78 67.6777 95.78 71.1235V79.3876H92.9885V77.8461C92.1908 78.93 91.11 79.6292 89.2346 79.6292C86.98 79.6292 85.1262 78.5207 85.1262 75.8941ZM64.7109 66.7868H67.5487V68.7145C68.1355 67.5337 69.4739 66.5212 71.2812 66.5212C72.8772 66.5212 74.1439 67.2207 74.7559 68.7869C75.6935 67.2207 77.3823 66.5212 78.9069 66.5212C81.1615 66.5212 82.99 67.9433 82.99 71.4127V79.3876H80.1523V71.6056C80.1523 69.7502 79.3792 68.9555 77.9692 68.9555C76.5631 68.9555 75.2712 69.9188 75.2712 71.8466V79.3876H72.4298V71.6056C72.4298 69.7502 71.6318 68.9555 70.2469 68.9555C68.8405 68.9555 67.5487 69.9188 67.5487 71.8466V79.3876H64.7109V66.7868ZM55.8612 66.7868H58.7025V69.1484C59.4755 67.558 60.6278 66.6182 62.6926 66.594V69.317C60.2055 69.3406 58.7025 70.1598 58.7025 72.8344V79.3876H55.8612V66.7868ZM50.7008 73.1717V73.0031C50.7008 70.4008 49.4341 68.8104 47.3192 68.8104C45.2078 68.8104 43.9195 70.3766 43.9195 72.9792V73.1717C43.9195 75.7497 45.1613 77.3638 47.3192 77.3638C49.4341 77.3638 50.7008 75.7497 50.7008 73.1717ZM41.0066 73.2199V73.0273C41.0066 69.1238 43.7048 66.5212 47.3192 66.5212C50.912 66.5212 53.6102 69.0996 53.6102 72.955V73.1479C53.6102 77.0746 50.912 79.6292 47.2977 79.6292C43.6833 79.6292 41.0066 77.0507 41.0066 73.2199ZM29.9488 62.161H40.3445V64.7147H33.0694V69.8472H38.795V72.3286H33.0694V79.3876H29.9488V62.161Z" fill="currentColor"/>
</svg>
