<svg width="10" height="16" viewBox="0 0 10 16" fill="none" xmlns="http://www.w3.org/2000/svg">
<path d="M5.00594 8.25759C7.30556 8.25686 9.16825 6.40728 9.16751 4.12732C9.16676 1.84663 7.30185 -0.000735489 5.00298 2.19669e-07C2.7041 0.000735928 0.840671 1.85031 0.841413 4.13027C0.84438 6.40949 2.70781 8.25612 5.00594 8.25759ZM5.00594 2.42048C5.95843 2.42048 6.73066 3.18635 6.73066 4.131C6.73066 5.07565 5.95843 5.84079 5.00594 5.84079C4.05346 5.84079 3.28123 5.07492 3.28123 4.13027C3.28271 3.18635 4.0542 2.42122 5.00594 2.42048ZM6.68911 11.6264C7.54591 11.4336 8.36338 11.0974 9.10742 10.6332C9.67416 10.2705 9.83736 9.52154 9.47165 8.95946C9.11187 8.4062 8.37154 8.2392 7.80628 8.58424C6.09196 9.64734 3.91548 9.64734 2.20115 8.58424C1.63218 8.23037 0.880729 8.39958 0.522434 8.96313C0.162655 9.52742 0.331788 10.2749 0.9015 10.6317C0.902241 10.6317 0.902983 10.6325 0.902983 10.6325C1.64628 11.096 2.46375 11.4322 3.31981 11.6257L0.992001 13.9343C0.528368 14.4199 0.549881 15.1865 1.04022 15.6463C1.51127 16.0877 2.24715 16.0877 2.7182 15.6463L5.00446 13.3774L7.29221 15.6463C7.76845 16.1179 8.53919 16.1179 9.01543 15.6463C9.49094 15.174 9.49094 14.4096 9.01543 13.9373L6.68911 11.6264Z" fill="#C7C3C1"/>
</svg>
