<svg width="18" height="14" viewBox="0 0 18 14" fill="none" xmlns="http://www.w3.org/2000/svg">
<path d="M1.10279 6.09619C1.10279 6.09619 9.06387 3.02305 11.8254 1.94116C12.8839 1.50864 16.4734 0.12363 16.4734 0.12363C16.4734 0.12363 18.1306 -0.482612 17.9917 0.98986C17.9459 1.5961 17.5778 3.71675 17.2096 6.01112C16.6568 9.25799 16.0594 12.8068 16.0594 12.8068C16.0594 12.8068 15.9677 13.8024 15.1856 13.9749C14.4035 14.1487 13.1145 13.3687 12.8852 13.1962C12.7005 13.0668 9.43326 11.1186 8.23719 10.1662C7.91493 9.90616 7.5468 9.38738 8.28304 8.78114C9.94022 7.353 11.9184 5.57861 13.1145 4.45239C13.6673 3.93241 14.2188 2.72112 11.9184 4.1924C8.65117 6.31304 5.42979 8.3043 5.42979 8.3043C5.42979 8.3043 4.69355 8.73681 3.31278 8.34743C1.93201 7.95804 0.321965 7.43806 0.321965 7.43806C0.321965 7.43806 -0.783669 6.78869 1.10279 6.09619Z" fill="#C7C3C1"/>
</svg>
