<svg width="16" height="10" viewBox="0 0 16 10" fill="none" xmlns="http://www.w3.org/2000/svg">
<path fill-rule="evenodd" clip-rule="evenodd" d="M7.52511 9.27918H8.45478C8.45478 9.27918 8.73368 9.23337 8.87313 9.09594C9.01258 8.95851 9.01258 8.68365 9.01258 8.68365C9.01258 8.68365 9.01258 7.49261 9.57037 7.30937C10.1282 7.12613 10.8719 8.50041 11.6156 9.00432C12.1734 9.4166 12.5918 9.32499 12.5918 9.32499L14.637 9.27918C14.637 9.27918 15.7062 9.23337 15.1948 8.36299C15.1484 8.31718 14.9159 7.76746 13.6609 6.62223C12.3594 5.43118 12.5453 5.66023 14.0792 3.5988C15.0089 2.36194 15.3808 1.62899 15.2878 1.26252C15.1948 0.941849 14.4976 1.03347 14.4976 1.03347H12.1734C12.1734 1.03347 11.9875 0.987658 11.8945 1.07928C11.7551 1.1709 11.7086 1.30832 11.7086 1.30832C11.7086 1.30832 11.3367 2.27032 10.8719 3.09489C9.84927 4.78985 9.43093 4.88147 9.29148 4.78985C8.91961 4.5608 9.01258 3.78204 9.01258 3.27813C9.01258 1.62899 9.29148 0.941849 8.50126 0.758611C8.26885 0.712801 8.08291 0.666992 7.43215 0.666992C6.59545 0.666992 5.8982 0.666992 5.52634 0.85023C5.24744 0.987658 5.0615 1.26252 5.20095 1.26252C5.3404 1.26252 5.71227 1.35413 5.8982 1.58318C6.08414 1.99547 6.08414 2.68261 6.08414 2.68261C6.08414 2.68261 6.22358 4.65242 5.75875 4.88146C5.43337 5.0647 5.01502 4.69823 4.08536 3.1407C3.62053 2.36194 3.24866 1.44575 3.24866 1.44575C3.24866 1.44575 3.20218 1.26252 3.06273 1.1709C2.92328 1.07928 2.69086 1.03347 2.69086 1.03347H0.50615C0.50615 1.03347 0.180768 1.03347 0.0413184 1.1709C-0.051648 1.30833 0.0413184 1.53737 0.0413184 1.53737C0.0413184 1.53737 1.7612 5.47699 3.71349 7.49261C5.52634 9.4166 7.52511 9.27918 7.52511 9.27918Z" fill="#C7C3C1"/>
</svg>
