<svg width="18" height="13" viewBox="0 0 18 13" fill="none" xmlns="http://www.w3.org/2000/svg">
<path d="M17.3051 1.97866C17.2064 1.59551 17.0129 1.2461 16.7441 0.965401C16.4752 0.6847 16.1403 0.482554 15.7729 0.379193C14.4207 7.69419e-08 9.00016 0 9.00016 0C9.00016 0 3.57963 -7.69419e-08 2.22739 0.377176C1.85987 0.480202 1.52482 0.682236 1.25589 0.962989C0.986953 1.24374 0.793602 1.59333 0.695252 1.97665C0.333496 3.38854 0.333496 6.33333 0.333496 6.33333C0.333496 6.33333 0.333496 9.27813 0.695252 10.688C0.894508 11.4666 1.4826 12.0797 2.22739 12.2875C3.57963 12.6667 9.00016 12.6667 9.00016 12.6667C9.00016 12.6667 14.4207 12.6667 15.7729 12.2875C16.5197 12.0797 17.1058 11.4666 17.3051 10.688C17.6668 9.27813 17.6668 6.33333 17.6668 6.33333C17.6668 6.33333 17.6668 3.38854 17.3051 1.97866ZM7.27844 9.03609V3.63057L11.7665 6.31316L7.27844 9.03609Z" fill="#C7C3C1"/>
</svg>
